<?xml version="1.0" encoding="UTF-8" standalone="no"?>
<!-- Created with Inkscape (http://www.inkscape.org/) -->

<svg
   version="1.1"
   id="svg2"
   width="512"
   height="512"
   viewBox="0 0 512 512"
   sodipodi:docname="ball_green.svg"
   inkscape:version="1.2.2 (732a01da63, 2022-12-09)"
   xmlns:inkscape="http://www.inkscape.org/namespaces/inkscape"
   xmlns:sodipodi="http://sodipodi.sourceforge.net/DTD/sodipodi-0.dtd"
   xmlns="http://www.w3.org/2000/svg"
   xmlns:svg="http://www.w3.org/2000/svg">
  <defs
     id="defs6" />
  <sodipodi:namedview
     id="namedview4"
     pagecolor="#505050"
     bordercolor="#ffffff"
     borderopacity="1"
     inkscape:showpageshadow="0"
     inkscape:pageopacity="0"
     inkscape:pagecheckerboard="1"
     inkscape:deskcolor="#505050"
     showgrid="false"
     inkscape:zoom="1.7128906"
     inkscape:cx="223.30673"
     inkscape:cy="256.2919"
     inkscape:window-width="1920"
     inkscape:window-height="1057"
     inkscape:window-x="-8"
     inkscape:window-y="-8"
     inkscape:window-maximized="1"
     inkscape:current-layer="g8" />
  <g
     inkscape:groupmode="layer"
     inkscape:label="Image"
     id="g8">
    <path
       style="display:inline;fill:#007a23;fill-opacity:1;fill-rule:evenodd;stroke:#007a23;stroke-width:4.33581;stroke-opacity:1"
       d="m 234.10718,511.16874 c 0,-0.29664 -2.03603,-0.6764 -4.52451,-0.8439 -9.29195,-0.62544 -18.24402,-1.70227 -18.24402,-2.19453 0,-0.27988 -1.18221,-0.50887 -2.62713,-0.50887 -1.44493,0 -2.62714,-0.23626 -2.62714,-0.52503 0,-0.28876 -1.11654,-0.67257 -2.48119,-0.85291 -5.25366,-0.69427 -10.3626,-1.80108 -10.3626,-2.24496 0,-0.25507 -0.9195,-0.46376 -2.04333,-0.46376 -1.12383,0 -2.04333,-0.23692 -2.04333,-0.52649 0,-0.28957 -1.57628,-0.70943 -3.50285,-0.93303 -1.92656,-0.22361 -3.50285,-0.64347 -3.50285,-0.93304 0,-0.28956 -0.65678,-0.52648 -1.45952,-0.52648 -0.80274,0 -1.45952,-0.2329 -1.45952,-0.51755 0,-0.28465 -0.72246,-0.66693 -1.60547,-0.8495 -3.78657,-0.78293 -7.15166,-1.85035 -7.15166,-2.26854 0,-0.24809 -0.49539,-0.45107 -1.10088,-0.45107 -0.60548,0 -1.85337,-0.39246 -2.77309,-0.87212 -0.91971,-0.47966 -2.26331,-0.87373 -2.98578,-0.87571 -0.72246,-0.002 -1.31561,-0.20063 -1.31812,-0.44146 -0.005,-0.44236 -2.76429,-1.89737 -3.59873,-1.89737 -0.2483,0 -1.96924,-0.68834 -3.82431,-1.52964 -5.91286,-2.68158 -7.03783,-3.14083 -7.6937,-3.14083 -0.35284,0 -0.64153,-0.26271 -0.64153,-0.58381 0,-0.32109 -0.52543,-0.58381 -1.16762,-0.58381 -0.64219,0 -1.16762,-0.20488 -1.16762,-0.45529 0,-0.2504 -1.31356,-0.96503 -2.91904,-1.58804 -1.60547,-0.62301 -2.91904,-1.28377 -2.91904,-1.46834 0,-0.18458 -1.18221,-0.82312 -2.62714,-1.41899 -1.44492,-0.59585 -2.62714,-1.3065 -2.62714,-1.57921 0,-0.2727 -0.39407,-0.49583 -0.87571,-0.49583 -0.48164,0 -0.87571,-0.20994 -0.87571,-0.46653 0,-0.25659 -0.91674,-0.79802 -2.0372,-1.20318 -1.12046,-0.40517 -2.37316,-1.04906 -2.78379,-1.43085 -0.41061,-0.38181 -1.66126,-1.19984 -2.77921,-1.81784 -1.11795,-0.61801 -2.164,-1.2748 -2.32454,-1.45952 -0.39941,-0.45957 -2.24923,-1.57224 -4.52452,-2.72149 -1.04356,-0.5271 -1.89738,-1.19115 -1.89738,-1.47566 0,-0.28451 -0.39407,-0.51729 -0.87571,-0.51729 -0.48164,0 -0.87571,-0.24501 -0.87571,-0.54446 0,-0.29946 -0.59111,-0.73111 -1.31357,-0.95923 -0.72246,-0.22812 -1.73846,-0.9026 -2.25776,-1.49886 -0.51931,-0.59626 -1.17878,-1.08411 -1.46549,-1.08411 -0.28671,0 -1.22961,-0.65678 -2.09532,-1.45952 -0.86572,-0.80274 -1.72832,-1.45952 -1.91689,-1.45952 -0.18858,0 -1.05118,-0.65678 -1.9169,-1.45952 -0.86571,-0.80274 -1.78629,-1.45952 -2.04572,-1.45952 -0.259434,0 -1.050261,-0.59611 -1.757393,-1.32467 -0.707132,-0.72857 -2.336547,-2.0998 -3.620926,-3.04719 -1.284378,-0.94738 -2.81405,-2.32163 -3.399271,-3.05389 -0.585221,-0.73226 -1.349421,-1.33138 -1.698217,-1.33138 -0.348802,0 -1.866231,-1.24789 -3.372066,-2.77309 -1.505835,-1.5252 -4.945056,-4.90816 -7.642718,-7.5177 -6.737786,-6.51768 -14.536252,-14.68651 -14.544437,-15.23518 -0.0035,-0.24943 -1.317294,-1.75 -2.919042,-3.3346 -1.601755,-1.58461 -2.912276,-3.12987 -2.912276,-3.43392 0,-0.30405 -0.919499,-1.42001 -2.04333,-2.47992 -1.123831,-1.05991 -2.043329,-2.14447 -2.043329,-2.41014 0,-0.26566 -0.656785,-1.19134 -1.459521,-2.05705 -0.802737,-0.86572 -1.459521,-1.73562 -1.459521,-1.93311 0,-0.1975 -0.328393,-0.72528 -0.729761,-1.17284 -1.732467,-1.93187 -2.189282,-2.59224 -2.189282,-3.16486 0,-0.33465 -0.202971,-0.60846 -0.451048,-0.60846 -0.248076,0 -0.946231,-0.91949 -1.551454,-2.04332 -0.605223,-1.12384 -1.321749,-2.04333 -1.592281,-2.04333 -0.270532,0 -0.491876,-0.39407 -0.491876,-0.87572 0,-0.48164 -0.237014,-0.87571 -0.526697,-0.87571 -0.289684,0 -0.802653,-0.7916 -1.139931,-1.75913 -0.337279,-0.96751 -1.019763,-1.91511 -1.516633,-2.10579 -0.496869,-0.19066 -0.903398,-0.81181 -0.903398,-1.38033 0,-0.56852 -0.39407,-1.36072 -0.875712,-1.76045 -0.481642,-0.39973 -0.875713,-1.08868 -0.875713,-1.531 0,-0.44233 -0.262714,-0.80423 -0.583809,-0.80423 -0.321094,0 -0.583808,-0.37218 -0.583808,-0.82707 0,-0.45488 -0.197035,-0.91463 -0.437856,-1.02166 -0.240821,-0.10703 -0.960769,-1.24546 -1.599885,-2.52984 -0.639115,-1.28438 -1.2959,-2.46679 -1.459521,-2.62758 -0.320933,-0.31538 -2.126537,-3.56271 -3.162196,-5.68713 -0.350981,-0.71996 -0.835183,-1.31107 -1.076004,-1.31357 -0.240821,-0.003 -0.437856,-0.26547 -0.437856,-0.58436 0,-0.99694 -2.004095,-5.25828 -2.472954,-5.25828 -0.245349,0 -0.447707,-0.45975 -0.449685,-1.02167 -0.002,-0.56191 -0.396049,-1.77416 -0.875713,-2.69387 -0.479663,-0.91971 -0.872116,-2.03625 -0.872116,-2.48119 0,-0.44493 -0.200739,-0.80897 -0.446088,-0.80897 -0.442446,0 -2.472954,-4.23626 -2.472954,-5.15934 0,-0.26448 -0.655685,-1.77328 -1.457078,-3.35289 -0.801392,-1.57962 -1.458177,-3.31628 -1.459521,-3.85925 -0.0013,-0.54296 -0.265157,-1.14957 -0.586251,-1.34802 -0.321095,-0.19845 -0.583809,-1.0021 -0.583809,-1.78588 0,-0.78379 -0.262714,-1.42507 -0.583808,-1.42507 -0.321095,0 -0.583809,-0.49539 -0.583809,-1.10088 0,-0.60548 -0.392452,-1.85337 -0.872116,-2.77309 -0.479664,-0.91971 -0.873734,-2.26331 -0.875712,-2.98578 -0.002,-0.72246 -0.266311,-1.31357 -0.587405,-1.31357 -0.321095,0 -0.583809,-0.65678 -0.583809,-1.45952 0,-0.80273 -0.22612,-1.45952 -0.502489,-1.45952 -0.276369,0 -0.663458,-1.35913 -0.860198,-3.02028 -0.196739,-1.66117 -0.627404,-3.28999 -0.957032,-3.61962 -0.329628,-0.32963 -0.599323,-1.20713 -0.599323,-1.95 0,-0.74288 -0.23145,-1.80687 -0.5143336,-2.36443 -0.7560839,-1.49023 -2.4047087,-8.55484 -2.4047087,-10.30454 0,-0.83031 -0.2627138,-1.50966 -0.5838084,-1.50966 -0.3210947,0 -0.5838085,-1.18221 -0.5838085,-2.62713 0,-1.44493 -0.2391303,-2.62714 -0.5314005,-2.62714 -0.2922702,0 -0.6982163,-2.29875 -0.9021023,-5.10833 -0.203886,-2.80957 -0.6215402,-5.5645 -0.9281206,-6.12206 -0.3065803,-0.55756 -0.5574188,-2.4097 -0.5574188,-4.11585 0,-1.70616 -0.226029,-3.35169 -0.5022867,-3.65673 C 2.7243061,286.31571 2.1600674,279.57905 1.7467,271.65039 1.1279971,259.78327 1.1324065,254.49356 1.771641,241.73021 c 0.4270851,-8.52744 0.9913238,-15.50444 1.2538639,-15.50444 0.2625401,0 0.4773456,-1.56078 0.4773456,-3.46839 0,-1.90762 0.2382238,-3.61564 0.5293863,-3.79558 0.2911624,-0.17995 0.7164748,-2.82259 0.9451386,-5.87254 0.2286639,-3.04995 0.6472246,-5.54536 0.9301348,-5.54536 0.2829106,0 0.5143825,-1.18221 0.5143825,-2.62714 0,-1.44492 0.2627138,-2.62714 0.5838085,-2.62714 0.3210946,0 0.5838084,-0.67934 0.5838084,-1.50965 0,-1.7497 1.6486248,-8.81432 2.4047087,-10.30454 0.2828837,-0.55757 0.5143337,-1.65859 0.5143337,-2.44673 0,-0.78815 0.255097,-1.59065 0.566883,-1.78335 0.311786,-0.19269 0.739702,-1.65312 0.950925,-3.2454 0.211223,-1.59227 0.612911,-2.89505 0.892638,-2.89505 0.279728,0 0.508596,-0.64128 0.508596,-1.42506 0,-0.78379 0.239854,-1.57331 0.53301,-1.75449 0.293155,-0.18118 0.710085,-1.37752 0.926511,-2.65853 0.216426,-1.28102 0.633356,-2.47736 0.926511,-2.65854 0.293156,-0.18118 0.53301,-0.97069 0.53301,-1.75448 0,-0.78379 0.262714,-1.42507 0.583809,-1.42507 0.321094,0 0.583808,-0.49539 0.583808,-1.10088 0,-0.60548 0.392453,-1.85337 0.872116,-2.77309 0.479664,-0.91971 0.873735,-2.26331 0.875713,-2.98577 0.002,-0.72247 0.202179,-1.31357 0.444891,-1.31357 0.52603,0 1.665132,-2.52004 2.243077,-4.96238 0.227948,-0.96328 0.571036,-1.88278 0.762417,-2.04333 0.703969,-0.59055 3.558913,-6.44122 3.558913,-7.29332 0,-0.484 0.200739,-0.87999 0.446088,-0.87999 0.455978,0 2.472954,-4.24905 2.472954,-5.20964 0,-0.29213 0.197035,-0.61872 0.437856,-0.72575 0.240821,-0.10703 1.225998,-1.77013 2.189282,-3.69578 0.963284,-1.92564 2.063809,-3.83308 2.445613,-4.23874 0.381803,-0.40566 1.025685,-1.6543 1.430849,-2.77476 0.405164,-1.12046 0.946599,-2.0372 1.20319,-2.0372 0.256591,0 0.466528,-0.2738 0.466528,-0.60845 0,-0.33465 0.266414,-0.92576 0.592031,-1.31357 1.224541,-1.45845 3.494628,-5.15686 3.494628,-5.69342 0,-0.30683 0.234233,-0.55788 0.520519,-0.55788 0.286286,0 0.685361,-0.65679 0.886835,-1.45952 0.201474,-0.80274 0.624026,-1.45952 0.939003,-1.45952 0.314976,0 0.572685,-0.27418 0.572685,-0.60929 0,-0.33511 0.656785,-1.3176 1.459521,-2.18332 0.802737,-0.86571 1.459521,-1.9051 1.459521,-2.30975 0,-0.40465 0.221344,-0.73573 0.491876,-0.73573 0.270532,0 0.987058,-0.9195 1.592281,-2.04333 0.605224,-1.12383 1.303378,-2.04333 1.551454,-2.04333 0.248077,0 0.451049,-0.26071 0.451049,-0.57936 0,-0.52636 1.476671,-2.47022 3.356898,-4.41897 0.401368,-0.415994 0.729761,-1.015939 0.729761,-1.33321 0,-0.31727 0.20207,-0.664426 0.449046,-0.771462 0.246975,-0.107029 1.626223,-1.639211 3.064996,-3.404852 1.438772,-1.765635 3.154527,-3.735989 3.812789,-4.378563 0.658267,-0.642569 1.872781,-2.08781 2.698923,-3.211642 1.798853,-2.447038 20.892005,-21.600912 21.532437,-21.600912 0.246221,0 1.927659,-1.444926 3.736526,-3.210946 1.808872,-1.766021 3.485085,-3.210947 3.724925,-3.210947 0.23984,0 1.410913,-0.919498 2.602385,-2.043329 1.191471,-1.123831 2.379264,-2.04333 2.639544,-2.04333 0.260273,0 1.228317,-0.788141 2.151197,-1.751425 0.92289,-0.963284 2.02067,-1.751425 2.43952,-1.751425 0.41884,0 1.08967,-0.525428 1.49072,-1.167617 0.40105,-0.642189 0.99708,-1.167617 1.32449,-1.167617 0.3274,0 1.26332,-0.591106 2.0798,-1.313569 1.78598,-1.580322 3.30368,-2.579779 5.08636,-3.349531 0.73069,-0.315509 1.48126,-0.971666 1.66793,-1.458127 0.18668,-0.486461 0.80456,-0.884474 1.37308,-0.884474 0.56852,0 1.36072,-0.394071 1.76045,-0.875713 0.39973,-0.481642 1.08868,-0.875713 1.531,-0.875713 0.44233,0 0.80424,-0.262713 0.80424,-0.583808 0,-0.321095 0.39407,-0.583808 0.87571,-0.583808 0.48164,0 0.87571,-0.223123 0.87571,-0.49583 0,-0.272706 1.18221,-0.983352 2.62714,-1.579214 1.44492,-0.595861 2.62714,-1.236766 2.62714,-1.424231 0,-0.187465 1.5106,-1.117371 3.35689,-2.066457 1.8463,-0.949086 3.48826,-1.858377 3.64881,-2.020647 0.16054,-0.162269 2.1309,-1.214534 4.37856,-2.338365 2.24766,-1.123831 4.17423,-2.240365 4.28126,-2.481186 0.10704,-0.240821 0.69814,-0.437856 1.31357,-0.437856 0.61543,0 1.11897,-0.262714 1.11897,-0.583809 0,-0.321094 0.3537,-0.583808 0.78601,-0.583808 0.43231,0 1.54885,-0.361356 2.48119,-0.803014 0.93234,-0.441658 2.54899,-1.162574 3.59255,-1.602036 1.04355,-0.439461 1.89737,-0.997603 1.89737,-1.240315 0,-0.242712 0.51652,-0.441294 1.14781,-0.441294 1.27978,0 5.45761,-1.799465 5.76059,-2.481186 0.10704,-0.240821 0.8295,-0.437856 1.60548,-0.437856 0.77598,0 1.41087,-0.232884 1.41087,-0.517521 0,-0.284636 1.17609,-0.693886 2.61353,-0.909444 1.43744,-0.215557 2.76651,-0.639457 2.9535,-0.942 0.18698,-0.302543 0.84989,-0.550077 1.47313,-0.550077 0.62323,0 1.13316,-0.232885 1.13316,-0.517521 0,-0.284636 1.17608,-0.693886 2.61353,-0.909444 1.43744,-0.215558 2.76651,-0.639457 2.95349,-0.942 0.18699,-0.302543 1.24397,-0.550078 2.34885,-0.550078 1.10488,0 2.00887,-0.262713 2.00887,-0.583808 0,-0.321095 0.65678,-0.583808 1.45952,-0.583808 0.80274,0 1.45952,-0.208692 1.45952,-0.463758 0,-0.255067 1.64196,-0.757498 3.6488,-1.1165132 4.60277,-0.8234146 6.91393,-1.3376978 8.02737,-1.78626 1.01484,-0.4088417 7.97231,-1.7946164 11.38426,-2.267496 1.28438,-0.1780083 2.58482,-0.5594567 2.88986,-0.847663 0.30504,-0.2882063 1.89446,-0.5240115 3.53204,-0.5240115 1.63758,0 3.227,-0.2444554 3.53204,-0.5432342 0.30504,-0.2987788 4.10125,-0.7266538 8.43603,-0.9508334 4.33478,-0.2241795 8.17939,-0.6434329 8.54358,-0.931674 1.70069,-1.34601595 56.79745,0.4859842 57.32947,1.906239 0.10704,0.2857264 1.47078,0.5195026 3.03054,0.5195026 1.55977,0 2.9983,0.2627138 3.19675,0.5838084 0.19845,0.3210947 1.64338,0.5838085 3.21095,0.5838085 1.56757,0 2.99595,0.2359463 3.17418,0.524325 0.17823,0.2883789 2.16409,0.7091127 4.41302,0.9349643 2.24893,0.2258515 4.08897,0.6466898 4.08897,0.9351957 0,0.2885065 0.90399,0.5245571 2.00887,0.5245571 1.10488,0 2.15227,0.232009 2.32752,0.5155765 0.17526,0.2835668 1.76704,0.6965412 3.5373,0.9177211 1.77027,0.2211801 3.21867,0.6459551 3.21867,0.9439451 0,0.297989 0.9195,0.5418 2.04333,0.5418 1.12383,0 2.04333,0.232895 2.04333,0.517546 0,0.284651 0.72246,0.666927 1.60547,0.849502 3.78657,0.782929 7.15165,1.850348 7.15165,2.268537 0,0.24809 0.64128,0.451074 1.42507,0.451074 0.78378,0 1.5733,0.239854 1.75448,0.53301 0.18118,0.293155 1.3789,0.710318 2.6616,0.927027 1.28269,0.216711 2.33217,0.633641 2.33217,0.926512 0,0.292871 0.65679,0.532493 1.45952,0.532493 0.80274,0 1.45952,0.262714 1.45952,0.583808 0,0.321095 0.59111,0.592164 1.31357,0.602376 0.72247,0.01021 1.82353,0.404282 2.44682,0.875712 0.62329,0.471431 1.60846,0.857146 2.18928,0.857146 0.58082,0 1.05604,0.262714 1.05604,0.583808 0,0.321095 0.65678,0.583809 1.45952,0.583809 0.80273,0 1.45952,0.24184 1.45952,0.537422 0,0.295581 0.85382,0.722658 1.89738,0.949057 1.04355,0.2264 2.02873,0.578324 2.18928,0.782054 0.45883,0.582241 6.65454,3.569551 7.40328,3.569551 0.37,0 0.7603,0.197036 0.86734,0.437857 0.30657,0.689791 3.77877,2.481185 4.80919,2.481185 0.51237,0 0.93159,0.262714 0.93159,0.583809 0,0.321095 0.39407,0.583808 0.87571,0.583808 0.48164,0 0.87571,0.262714 0.87571,0.583809 0,0.321094 0.49326,0.583808 1.09614,0.583808 0.60287,0 1.42318,0.394071 1.82291,0.875713 0.39972,0.481642 1.08868,0.875712 1.531,0.875712 0.44233,0 0.80423,0.200417 0.80423,0.445372 0,0.445904 1.72985,1.500472 3.6488,2.224417 0.56192,0.211989 1.02167,0.617508 1.02167,0.901152 0,0.283645 0.52543,0.515719 1.16761,0.515719 0.64219,0 1.16762,0.221344 1.16762,0.491875 0,0.270532 0.9195,0.987058 2.04333,1.592282 1.12383,0.605223 2.04333,1.303377 2.04333,1.551454 0,0.248076 0.39407,0.451048 0.87571,0.451048 0.48165,0 0.87572,0.24501 0.87572,0.544466 0,0.299457 0.5911,0.731108 1.31357,0.959225 0.72246,0.228117 1.73845,0.902605 2.25776,1.498863 0.5193,0.596257 1.17877,1.084105 1.46548,1.084105 0.28671,0 1.22961,0.656784 2.09532,1.459521 0.86572,0.802736 1.73562,1.459521 1.93312,1.459521 0.19749,0 0.72527,0.328392 1.17283,0.72976 1.75165,1.570849 2.5704,2.189282 2.89845,2.189282 0.18811,0 1.05033,0.656785 1.91605,1.459521 0.86571,0.802737 1.79139,1.459521 2.05705,1.459521 0.26567,0 1.31921,0.870148 2.3412,1.933662 1.022,1.063512 2.51496,2.380432 3.3177,2.926479 4.83994,3.292312 28.1255,26.548391 31.37569,31.335982 0.54497,0.802737 1.58978,2.062566 2.32183,2.799625 0.73204,0.737058 1.33098,1.554133 1.33098,1.81572 0,0.261581 0.9195,1.450559 2.04333,2.642165 1.12383,1.191613 2.04333,2.363193 2.04333,2.603523 0,0.24032 0.65679,1.00802 1.45952,1.70599 0.80274,0.69798 1.45952,1.60685 1.45952,2.01974 0,0.41288 0.52543,1.12939 1.16762,1.59226 0.64219,0.46286 1.16762,1.1657 1.16762,1.56186 0,0.39617 0.60374,1.32404 1.34164,2.06194 0.73791,0.73791 1.52783,1.73502 1.75539,2.21582 0.22756,0.48079 1.00307,1.81347 1.72335,2.96151 0.72029,1.14804 1.94909,3.18407 2.73068,4.52452 0.78159,1.34044 1.63541,2.43717 1.89737,2.43717 0.26197,0 0.47631,0.39408 0.47631,0.87572 0,0.48164 0.26271,0.87571 0.58381,0.87571 0.32109,0 0.58381,0.49326 0.58381,1.09614 0,0.60287 0.39407,1.42317 0.87571,1.8229 0.48164,0.39973 0.87571,1.06679 0.87571,1.48236 0,0.41556 0.19704,0.84314 0.43786,0.95018 0.24082,0.10703 1.21925,1.77088 2.17429,3.69745 0.95505,1.92657 2.07158,3.85001 2.48119,4.27431 0.40961,0.4243 0.74475,1.27812 0.74475,1.89738 0,0.61925 0.26271,1.12592 0.5838,1.12592 0.3211,0 0.58381,0.39407 0.58381,0.87571 0,0.48164 0.26272,0.87571 0.58381,0.87571 0.3211,0 0.58381,0.41922 0.58381,0.93159 0,0.51237 0.3698,1.62891 0.82178,2.48119 1.66906,3.14726 3.84869,8.108 3.84869,8.75943 0,0.36937 0.26271,0.67158 0.58381,0.67158 0.32109,0 0.5838,0.64128 0.5838,1.42506 0,0.78379 0.23362,1.56945 0.51914,1.74591 0.28552,0.17647 0.69664,1.02808 0.91359,1.89248 0.21695,0.8644 0.90284,2.62387 1.52419,3.90993 0.62136,1.28606 1.12974,2.81438 1.12974,3.39625 0,0.58188 0.23289,1.05796 0.51753,1.05796 0.28463,0 0.69388,1.17609 0.90944,2.61353 0.21556,1.43744 0.63946,2.76652 0.942,2.9535 0.30254,0.18698 0.55008,0.98125 0.55008,1.76503 0,0.78379 0.23288,1.42507 0.51752,1.42507 0.28463,0 0.69388,1.17609 0.90944,2.61353 0.21556,1.43744 0.63946,2.76651 0.942,2.9535 0.30254,0.18698 0.55008,1.24396 0.55008,2.34884 0,1.10488 0.23397,2.00887 0.51993,2.00887 0.28597,0 0.66376,0.85382 0.83955,1.89738 0.99515,5.90777 1.67542,9.01638 2.17018,9.91682 0.30634,0.55756 0.557,1.65859 0.557,2.44673 0,0.78815 0.23921,1.58083 0.53158,1.76152 0.29237,0.1807 0.71784,2.56453 0.94549,5.29741 0.22764,2.73287 0.64522,5.11182 0.92793,5.28655 0.28272,0.17473 0.51404,1.87847 0.51404,3.78609 0,1.90761 0.22627,3.46839 0.50283,3.46839 0.27656,0 0.67063,2.36442 0.87571,5.25428 l 0.74577,10.50855 c 0.20508,2.88985 0.59915,5.25427 0.87571,5.25427 0.65344,0 0.65929,26.10578 0.006,26.50957 -0.27329,0.1689 -0.67004,2.74586 -0.88167,5.72658 -0.88762,12.50164 -1.06275,14.23171 -1.55322,15.34424 -0.28312,0.64219 -0.64848,2.48119 -0.81191,4.08666 -0.80503,7.90817 -1.72749,13.7195 -2.17776,13.7195 -0.27525,0 -0.50045,0.90399 -0.50045,2.00887 0,1.10488 -0.26271,2.17124 -0.58381,2.36969 -0.32109,0.19845 -0.59534,1.33049 -0.60943,2.51564 -0.0141,1.18516 -0.40421,3.20569 -0.86693,4.49006 -0.46271,1.28438 -0.84525,2.92634 -0.85008,3.64881 -0.005,0.72246 -0.27151,1.31357 -0.5926,1.31357 -0.3211,0 -0.58381,0.77263 -0.58381,1.71696 0,0.94434 -0.2381,1.86413 -0.52912,2.04399 -0.29101,0.17985 -0.70973,1.64028 -0.93049,3.2454 -0.22077,1.60511 -0.63946,2.91839 -0.93042,2.91839 -0.29096,0 -0.52902,0.64128 -0.52902,1.42506 0,0.78379 -0.24754,1.57806 -0.55008,1.76504 -0.30254,0.18698 -0.72644,1.51605 -0.942,2.9535 -0.21556,1.43744 -0.62481,2.61353 -0.90944,2.61353 -0.28464,0 -0.51753,0.65678 -0.51753,1.45952 0,0.80273 -0.19874,1.45952 -0.44166,1.45952 -0.24292,0 -0.78874,1.11653 -1.21294,2.48118 -0.4242,1.36466 -1.14496,3.33501 -1.60167,4.37857 -0.45671,1.04355 -1.22446,2.7909 -1.7061,3.88298 -0.48164,1.09209 -0.87571,2.2743 -0.87571,2.62714 0,0.35284 -0.26271,0.64153 -0.58381,0.64153 -0.32109,0 -0.58381,0.50992 -0.58381,1.13316 0,0.62324 -0.26271,1.29553 -0.58381,1.49398 -0.32109,0.19845 -0.5838,0.87074 -0.5838,1.49398 0,0.62323 -0.25081,1.13316 -0.55736,1.13316 -0.30654,0 -0.72985,0.91949 -0.94069,2.04333 -0.21083,1.12383 -0.6168,2.04333 -0.90216,2.04333 -0.28536,0 -0.51884,0.39407 -0.51884,0.87571 0,0.48164 -0.25081,0.87571 -0.55735,0.87571 -0.30654,0 -0.72986,0.9195 -0.94069,2.04333 -0.21083,1.12383 -0.6168,2.04333 -0.90216,2.04333 -0.28536,0 -0.51884,0.39407 -0.51884,0.87571 0,0.48164 -0.23669,0.87572 -0.52598,0.87572 -0.28928,0 -1.01175,1.18122 -1.60547,2.62494 -0.59373,1.44373 -1.27653,2.62594 -1.51735,2.62714 -0.24082,0.001 -0.43786,0.39626 -0.43786,0.8779 0,0.48165 -0.21215,0.87572 -0.47145,0.87572 -0.25931,0 -0.9614,1.11047 -1.56022,2.46772 -0.59882,1.35725 -1.57904,2.99399 -2.17828,3.63718 -0.59923,0.64321 -1.23918,1.7658 -1.42211,2.49465 -0.18293,0.72886 -0.52546,1.32519 -0.76119,1.32519 -0.23572,0 -0.92376,0.9195 -1.52899,2.04333 -0.60522,1.12383 -1.30338,2.04333 -1.55145,2.04333 -0.24808,0 -0.45105,0.39407 -0.45105,0.87571 0,0.48164 -0.39859,1.33546 -0.88575,1.89738 -2.50321,2.88732 -4.36853,5.30599 -4.36853,5.66446 0,0.48632 -4.78142,6.36914 -5.40023,6.64416 -0.24082,0.10704 -0.43785,0.51205 -0.43785,0.90004 0,0.38799 -0.9195,1.68028 -2.04333,2.87175 -1.12383,1.19147 -2.04333,2.31766 -2.04333,2.50264 0,0.29581 -0.97738,1.36353 -5.85415,6.39529 -0.63335,0.65348 -1.15155,1.36997 -1.15155,1.59219 0,0.56298 -16.81592,17.30597 -19.28838,19.20472 -1.11135,0.85348 -3.3342,2.75164 -4.93967,4.21816 -4.17936,3.81761 -4.69704,4.24801 -6.52881,5.42811 -0.90448,0.5827 -2.24756,1.65111 -2.98461,2.37426 -0.73706,0.72316 -1.5252,1.31544 -1.75143,1.3162 -0.22622,5.8e-4 -1.33082,0.79015 -2.45465,1.75423 -1.12383,0.96408 -2.50308,1.90066 -3.06499,2.0813 -0.56192,0.18064 -1.02167,0.57344 -1.02167,0.8729 0,0.29946 -0.27418,0.54447 -0.60929,0.54447 -0.33511,0 -1.3176,0.65678 -2.18332,1.45952 -0.86571,0.80274 -1.9051,1.45952 -2.30975,1.45952 -0.40465,0 -0.73572,0.20752 -0.73572,0.46116 0,0.25364 -1.31357,1.22833 -2.91905,2.16598 -1.60547,0.93765 -2.91904,1.88386 -2.91904,2.10268 0,0.21883 -0.65678,0.56272 -1.45952,0.76419 -0.80274,0.20148 -1.45952,0.62403 -1.45952,0.93901 0,0.31497 -0.52543,0.57268 -1.16762,0.57268 -0.64219,0 -1.16761,0.23208 -1.16761,0.51572 0,0.28364 -0.45975,0.68916 -1.02167,0.90115 -1.91895,0.72395 -3.6488,1.77851 -3.6488,2.22442 0,0.24496 -0.50354,0.44537 -1.11897,0.44537 -0.61543,0 -1.20653,0.19704 -1.31357,0.43786 -0.10703,0.24082 -2.55902,1.62007 -5.44888,3.06499 -2.88985,1.44493 -5.34184,2.82418 -5.44887,3.065 -0.10704,0.24082 -0.56679,0.43785 -1.02167,0.43785 -0.45488,0 -0.82706,0.26272 -0.82706,0.58381 0,0.3211 -0.60657,0.58381 -1.34794,0.58381 -0.74137,0 -1.8579,0.38572 -2.48118,0.85715 -0.62329,0.47142 -1.593,0.86549 -2.15492,0.87571 -0.56191,0.0102 -1.02166,0.22687 -1.02166,0.48147 0,0.25461 -1.51061,0.96698 -3.3569,1.58306 -1.84629,0.61608 -3.48826,1.26159 -3.6488,1.43447 -0.68266,0.73508 -2.98164,1.77412 -3.93279,1.77744 -0.56627,0.002 -1.78208,0.39605 -2.70179,0.87571 -0.91972,0.47966 -2.03625,0.87212 -2.48119,0.87212 -0.44494,0 -0.80898,0.23288 -0.80898,0.51752 0,0.28464 -1.17608,0.69388 -2.61353,0.90944 -1.43744,0.21556 -2.76651,0.63946 -2.95349,0.942 -0.18699,0.30254 -0.96575,0.55008 -1.73058,0.55008 -0.76484,0 -1.55298,0.26271 -1.75143,0.58381 -0.19845,0.32109 -1.13345,0.58381 -2.07778,0.58381 -0.94434,0 -1.71697,0.24381 -1.71697,0.54179 0,0.298 -1.4484,0.72277 -3.21867,0.94395 -1.77026,0.22118 -3.36204,0.63416 -3.5373,0.91772 -0.17525,0.28357 -0.94442,0.51558 -1.70925,0.51558 -0.76484,0 -1.53158,0.22809 -1.70387,0.50685 -0.17229,0.27878 -1.69236,0.68981 -3.37794,0.91341 -3.81652,0.50628 -8.02473,1.47365 -9.35953,2.15155 -0.55756,0.28317 -2.19952,0.51485 -3.6488,0.51485 -1.44929,0 -2.63506,0.23743 -2.63506,0.52763 0,0.29019 -2.76256,0.71592 -6.13902,0.94606 -3.37645,0.23014 -6.28181,0.64949 -6.45635,0.93189 -0.17453,0.28241 -2.53489,0.51346 -5.24525,0.51346 -2.89607,0 -4.92791,0.24071 -4.92791,0.58381 0,0.37882 -7.68682,0.58381 -21.89282,0.58381 -13.00301,0 -21.89282,-0.21901 -21.89282,-0.53936 z"
       id="path5944"
       inkscape:label="ball" />
  </g>
</svg>
