<?xml version="1.0" encoding="UTF-8" standalone="no"?>
<!-- Created with Inkscape (http://www.inkscape.org/) -->

<svg
   width="210mm"
   height="297mm"
   viewBox="0 0 210 297"
   version="1.1"
   id="svg5"
   xml:space="preserve"
   inkscape:version="1.2.2 (732a01da63, 2022-12-09)"
   sodipodi:docname="AdvApp.svg"
   inkscape:export-filename="AdvApp.png"
   inkscape:export-xdpi="96"
   inkscape:export-ydpi="96"
   xmlns:inkscape="http://www.inkscape.org/namespaces/inkscape"
   xmlns:sodipodi="http://sodipodi.sourceforge.net/DTD/sodipodi-0.dtd"
   xmlns:xlink="http://www.w3.org/1999/xlink"
   xmlns="http://www.w3.org/2000/svg"
   xmlns:svg="http://www.w3.org/2000/svg"><sodipodi:namedview
     id="namedview7"
     pagecolor="#505050"
     bordercolor="#ffffff"
     borderopacity="1"
     inkscape:showpageshadow="0"
     inkscape:pageopacity="0"
     inkscape:pagecheckerboard="1"
     inkscape:deskcolor="#505050"
     inkscape:document-units="mm"
     showgrid="false"
     inkscape:zoom="1"
     inkscape:cx="272.5"
     inkscape:cy="392"
     inkscape:window-width="1920"
     inkscape:window-height="1057"
     inkscape:window-x="-8"
     inkscape:window-y="-8"
     inkscape:window-maximized="1"
     inkscape:current-layer="svg5" /><defs
     id="defs2"><inkscape:path-effect
       effect="bend_path"
       id="path-effect8575"
       is_visible="true"
       lpeversion="1"
       bendpath="m 55.8847,89.336265 c 15.142049,15.780695 29.403604,12.123075 41.664103,0"
       prop_scale="1"
       scale_y_rel="false"
       vertical="false"
       hide_knot="false"
       bendpath-nodetypes="cc" /><linearGradient
       inkscape:collect="always"
       id="linearGradient3637"><stop
         style="stop-color:#9a0b8a;stop-opacity:1;"
         offset="0"
         id="stop3633" /><stop
         style="stop-color:#9a0b8a;stop-opacity:0;"
         offset="1"
         id="stop3635" /></linearGradient><linearGradient
       id="linearGradient1630"
       inkscape:swatch="solid"><stop
         style="stop-color:#2d6b78;stop-opacity:1;"
         offset="0"
         id="stop1628" /></linearGradient><linearGradient
       inkscape:collect="always"
       xlink:href="#linearGradient3637"
       id="linearGradient3641"
       x1="39.375126"
       y1="25.095436"
       x2="84.408768"
       y2="25.095436"
       gradientUnits="userSpaceOnUse"
       gradientTransform="translate(14.824808,64.240831)" /><linearGradient
       inkscape:collect="always"
       xlink:href="#linearGradient3637"
       id="linearGradient8577"
       gradientUnits="userSpaceOnUse"
       gradientTransform="translate(14.824808,64.240831)"
       x1="39.375126"
       y1="25.095436"
       x2="84.408768"
       y2="25.095436" /><linearGradient
       inkscape:collect="always"
       xlink:href="#linearGradient3637"
       id="linearGradient8579"
       gradientUnits="userSpaceOnUse"
       gradientTransform="translate(14.824808,64.240831)"
       x1="39.375126"
       y1="25.095436"
       x2="84.408768"
       y2="25.095436" /><linearGradient
       inkscape:collect="always"
       xlink:href="#linearGradient3637"
       id="linearGradient8581"
       gradientUnits="userSpaceOnUse"
       gradientTransform="translate(14.824808,64.240831)"
       x1="39.375126"
       y1="25.095436"
       x2="84.408768"
       y2="25.095436" /><linearGradient
       inkscape:collect="always"
       xlink:href="#linearGradient3637"
       id="linearGradient8583"
       gradientUnits="userSpaceOnUse"
       gradientTransform="translate(14.824808,64.240831)"
       x1="39.375126"
       y1="25.095436"
       x2="84.408768"
       y2="25.095436" /><linearGradient
       inkscape:collect="always"
       xlink:href="#linearGradient3637"
       id="linearGradient8585"
       gradientUnits="userSpaceOnUse"
       gradientTransform="translate(14.824808,64.240831)"
       x1="39.375126"
       y1="25.095436"
       x2="84.408768"
       y2="25.095436" /><linearGradient
       inkscape:collect="always"
       xlink:href="#linearGradient3637"
       id="linearGradient8587"
       gradientUnits="userSpaceOnUse"
       gradientTransform="translate(14.824808,64.240831)"
       x1="39.375126"
       y1="25.095436"
       x2="84.408768"
       y2="25.095436" /></defs><path
     style="fill:#0b465a;fill-opacity:1;stroke:#0a465a;stroke-width:22.9875;stroke-opacity:1"
     id="path1163"
     sodipodi:type="arc"
     sodipodi:cx="101.93492"
     sodipodi:cy="110.92475"
     sodipodi:rx="71.006058"
     sodipodi:ry="70.896255"
     sodipodi:start="1.5914716"
     sodipodi:end="1.5897383"
     sodipodi:arc-type="slice"
     d="m 100.46696,181.80585 a 71.006058,70.896255 0 0 1 -69.52355,-72.31608 71.006058,70.896255 0 0 1 72.39795,-69.447365 71.006058,70.896255 0 0 1 69.58629,72.255895 71.006058,70.896255 0 0 1 -72.33764,69.50999 l 1.34491,-70.88354 z"
     inkscape:label="Background" /><g
     inkscape:label="Icon"
     inkscape:groupmode="layer"
     id="layer1"
     transform="matrix(2.5356586,0,0,2.5356586,-91.022789,-56.398008)"
     style="display:inline"><g
       id="g8435"
       inkscape:label="gear"
       style="display:inline"><path
         style="display:inline;fill:#0056cf;fill-opacity:1;stroke-width:0.264583"
         d="M 73.40401,86.279019 C 72.829944,86.169767 72.792032,86.055038 72.874844,84.67766 l 0.0892,-1.483675 -1.477074,-0.438991 -1.477073,-0.438989 -0.721002,1.282629 c -0.396551,0.705448 -0.777623,1.282631 -0.846826,1.282631 -0.400195,0 -2.80156,-1.403403 -2.917254,-1.704896 -0.07608,-0.198257 0.10811,-0.843518 0.409306,-1.433912 0.301197,-0.590394 0.547631,-1.112506 0.547631,-1.160248 0,-0.04774 -0.544895,-0.542279 -1.210878,-1.098971 l -1.210877,-1.012168 -0.707352,0.638643 c -1.534857,1.385766 -1.497772,1.381493 -2.532505,0.291862 -1.418875,-1.494152 -1.455936,-1.872081 -0.288498,-2.941958 l 0.996488,-0.913212 -0.748994,-1.384617 -0.748995,-1.384615 -1.144562,0.389993 c -0.62951,0.214495 -1.316056,0.324184 -1.525659,0.24375 -0.434654,-0.166793 -1.318244,-2.935955 -1.066686,-3.342985 0.09117,-0.147513 0.694474,-0.401337 1.340681,-0.564054 1.281747,-0.322748 1.360405,-0.531095 1.007159,-2.667726 -0.159985,-0.967672 -0.178305,-0.980441 -1.518443,-1.058333 -1.283381,-0.07459 -1.36128,-0.120793 -1.445106,-0.857036 -0.04873,-0.428005 -0.01003,-1.302118 0.08599,-1.942474 l 0.174594,-1.164282 1.483437,0.09039 1.483436,0.09039 0.446634,-1.496709 0.446634,-1.496709 -1.025398,-0.46239 c -1.595591,-0.719511 -1.676645,-0.945072 -0.894355,-2.488846 0.377995,-0.745938 0.849474,-1.418497 1.047731,-1.494575 0.198256,-0.07608 0.843516,0.10811 1.433911,0.409307 0.590395,0.301196 1.112506,0.54763 1.160248,0.54763 0.04774,0 0.52699,-0.526605 1.064996,-1.170232 l 0.978194,-1.170233 -0.922165,-1.103759 c -0.50719,-0.607067 -0.922164,-1.144527 -0.922164,-1.194354 0,-0.04983 0.446484,-0.514614 0.992187,-1.032859 1.495804,-1.420538 1.879931,-1.454331 2.915394,-0.256476 l 0.884131,1.022787 1.242165,-0.709104 c 1.316011,-0.75126 1.397274,-0.982575 0.978751,-2.785997 -0.189016,-0.81447 -0.145663,-0.882181 0.825712,-1.289645 0.563861,-0.236524 1.37371,-0.445015 1.799664,-0.463315 0.701049,-0.03012 0.812044,0.08586 1.170931,1.2235 0.380493,1.206126 0.436552,1.256771 1.391127,1.256771 1.845214,0 2.311777,-0.344352 2.40317,-1.773687 l 0.08114,-1.269021 1.206786,-0.0786 c 0.663734,-0.04323 1.528263,0.04362 1.921179,0.193011 0.683628,0.259915 0.707449,0.33166 0.55316,1.666101 l -0.161232,1.39449 1.508757,0.436443 1.50876,0.436444 0.435462,-0.796149 c 0.239503,-0.437881 0.623967,-1.039471 0.854361,-1.336866 0.418473,-0.540167 0.420325,-0.539943 1.81683,0.22013 0.768861,0.418467 1.454222,0.907541 1.523021,1.08683 0.0688,0.17929 -0.14429,0.805279 -0.473533,1.391087 -0.574794,1.022706 -0.579953,1.085736 -0.129635,1.583331 0.457967,0.50605 0.417735,0.543993 -1.712553,1.615081 l -2.181537,1.096855 -2.134224,-0.705368 c -6.636085,-2.19325 -13.460428,0.662086 -16.453067,6.884037 -4.21406,8.761392 2.197208,18.926418 11.95718,18.958033 5.084037,0.01646 9.458385,-2.609509 11.771516,-7.066589 1.304398,-2.51339 1.653482,-4.189896 1.480476,-7.110079 l -0.142529,-2.405721 3.082703,-1.241844 c 1.695487,-0.683015 3.275862,-1.314999 3.511947,-1.404408 0.309909,-0.11737 0.464302,0.02084 0.555353,0.497135 0.170778,0.89337 0.0034,1.079551 -1.381472,1.537029 l -1.190625,0.3933 0.09369,1.43231 c 0.05153,0.787771 0.147854,1.521608 0.214053,1.630749 0.0662,0.10914 0.61935,0.20026 1.229225,0.202489 1.743615,0.0064 1.889914,0.201752 1.612315,2.153217 l -0.238868,1.679189 -1.49416,-0.0494 -1.494161,-0.0494 -0.287009,1.139817 c -0.157853,0.626899 -0.353994,1.31438 -0.435867,1.527732 -0.101222,0.263781 0.235921,0.592039 1.053566,1.0258 0.661334,0.350835 1.202422,0.790874 1.202422,0.977863 0,0.530085 -1.30184,2.96822 -1.584878,2.96822 -0.139178,0 -0.789402,-0.26058 -1.444947,-0.57907 -0.655545,-0.318487 -1.225508,-0.526846 -1.26659,-0.463021 -0.04108,0.06383 -0.467529,0.623943 -0.947669,1.244703 l -0.872977,1.128652 0.809573,0.982152 c 0.445264,0.540184 0.809572,1.124339 0.809572,1.298125 0,0.399664 -2.094931,2.209292 -2.557606,2.209292 -0.190129,0 -0.740391,-0.430694 -1.222803,-0.957096 l -0.877115,-0.957098 -1.375405,0.69697 c -0.756473,0.383334 -1.375405,0.733288 -1.375405,0.777674 0,0.04439 0.192993,0.647105 0.428874,1.339377 0.240244,0.70508 0.327522,1.351541 0.198437,1.469818 -0.457845,0.41951 -3.058064,1.126268 -3.290067,0.894265 -0.128693,-0.128693 -0.397738,-0.707361 -0.597876,-1.285928 -0.405106,-1.171085 -0.745654,-1.31804 -2.458977,-1.061111 -1.089856,0.163433 -1.159775,0.2246 -1.163169,1.017569 -0.0076,1.783823 -0.204452,2.037784 -1.548601,1.998279 -0.674252,-0.01982 -1.504179,-0.08899 -1.844282,-0.153715 z"
         id="path8346"
         inkscape:label="gear" /></g><g
       inkscape:groupmode="layer"
       id="layer3"
       inkscape:label="bolt"
       style="display:inline"
       transform="matrix(0.39437486,0,0,0.39437486,35.897099,22.241956)"><g
         id="g8438"
         inkscape:label="bolt1"><path
           style="fill:#ffff38;fill-opacity:1;stroke:#9a0b8a;stroke-width:8.544;stroke-opacity:0"
           d="m 153.74914,64.175028 15.40878,20.319269 -50.12086,20.319273 6.2651,10.83694 -24.21379,11.00627 6.43443,7.95838 -13.038196,4.57184 -2.878563,0.16933 -3.555871,-1.35462 -3.555873,-2.37058 -4.233182,-3.21722 3.047892,-2.53991 -7.111744,-10.15963 16.255415,-8.63569 -6.603761,-11.00627 z"
           id="path1089"
           inkscape:label="bolt1"
           transform="translate(-1.2055986e-6)" /></g><g
         id="g8441"
         inkscape:label="bolt2"><path
           style="fill:#ffff38;fill-opacity:1;stroke:#9a0b8a;stroke-width:8.544;stroke-opacity:0"
           d="m 37.759976,156.96636 20.488597,-11.85291 4.402511,4.40251 -22.18187,7.61973 z"
           id="path8003"
           inkscape:label="bolt2"
           transform="translate(-1.2055986e-6)" /></g></g></g><g
     inkscape:groupmode="layer"
     id="layer2"
     inkscape:label="Text"
     style="display:inline"><g
       aria-label="AdvApp"
       transform="matrix(2.0978406,-1.4242995,1.4242995,2.0978406,-165.8819,65.104586)"
       id="text296"
       style="font-size:45.6962px;font-family:Magneto;-inkscape-font-specification:'Magneto, Normal';fill:#ffff3e;stroke:url(#linearGradient3641);stroke-width:3.36954;stroke-opacity:0"
       inkscape:label="text"
       inkscape:path-effect="#path-effect8575"
       class="UnoptimicedTransforms"><path
         d="m 67.434654,97.062636 c -0.04417,0.0455 -0.09033,0.08581 -0.138524,0.120903 -0.325808,0.236834 -0.747671,0.236077 -1.246453,-0.01922 -0.87887,-0.449839 -1.732998,-0.944877 -2.563507,-1.478313 -0.669247,0.463911 -1.354617,0.912555 -2.054589,1.346406 -0.524832,-0.357158 -1.039334,-0.727171 -1.543752,-1.10855 0.720604,-0.400021 1.428512,-0.8141 2.122204,-1.242708 -0.414733,-0.298343 -0.823338,-0.605849 -1.225969,-0.921577 -2.416094,0.351904 -4.351504,-0.190613 -5.550745,-1.370922 -0.350028,-0.344503 -0.586327,-0.692785 -0.710759,-1.037572 -0.156109,-0.436132 -0.09444,-0.781801 0.173311,-1.037707 0.228531,-0.218421 0.557091,-0.319578 0.98464,-0.311718 0.689678,0.01383 1.454125,0.282665 2.321419,0.784034 0.678493,0.39414 1.352716,0.886378 2.050091,1.477657 0.242856,0.20591 0.487867,0.40888 0.73507,0.608675 1.434704,-0.196662 2.826773,-0.472594 4.154809,-0.838749 0.586263,0.400973 1.182055,0.776985 1.787974,1.124401 -0.847604,0.725488 -1.73108,1.420327 -2.646426,2.08575 1.056441,0.666623 2.149923,1.267496 3.282879,1.787889 0.02276,0.01047 0.04553,0.02092 0.06833,0.03132 z m -2.612649,-4.241038 c -0.997123,0.31093 -2.030569,0.572435 -3.091682,0.788746 0.290569,0.220045 0.5841,0.435501 0.880654,0.646006 0.755622,-0.459679 1.493345,-0.937701 2.211028,-1.434752 z m -4.994403,0.163642 c -0.963878,-0.804879 -1.699936,-1.284083 -2.292523,-1.405597 -0.486236,-0.0982 -0.831791,-0.04798 -1.035428,0.16325 -0.173124,0.179582 -0.149348,0.377753 0.07667,0.591919 0.310878,0.294577 0.844758,0.512864 1.590651,0.629918 0.650293,0.106233 1.204921,0.108551 1.66063,0.02051 z"
         style="font-size:8.90411px;opacity:1;stroke:url(#linearGradient8577)"
         id="path8463"
         inkscape:original-d="m 68.253934,88.601502 q -0.221733,0.695634 -1.060841,0.695634 h -2.582539 l -0.81737,2.260809 h -1.55648 l 0.817369,-2.260809 h -1.334747 q -2.191245,2.643408 -4.282494,2.643408 -0.608679,0 -1.026059,-0.226081 -0.526073,-0.286949 -0.526073,-0.843456 0,-0.4739 0.391294,-0.926062 0.630418,-0.726068 1.908644,-1.073884 0.999974,-0.269559 2.208637,-0.269559 h 0.843456 l 2.634712,-3.160785 h 2.095596 l -1.121709,3.160785 z m -4.052065,-2.439065 -1.904297,2.439065 h 0.969539 z m -3.552079,3.134699 q -1.630391,0 -2.286896,0.469553 -0.543463,0.391294 -0.543463,0.830412 0,0.373903 0.391294,0.373903 0.539116,0 1.34779,-0.608679 0.708676,-0.526073 1.091275,-1.065189 z" /><path
         d="m 70.605111,100.59132 c -0.288663,0.4018 -0.785211,0.51615 -1.466456,0.29864 -0.662647,-0.21158 -1.315865,-0.45001 -1.957606,-0.71378 -0.558354,-0.229498 -0.758965,-0.494573 -0.626894,-0.762644 -0.105418,0.03696 -0.213236,0.06369 -0.323306,0.08009 0,0 0,0 0,0 -0.421506,0.06369 -0.875634,-0.02473 -1.345383,-0.268298 -0.386814,-0.200566 -0.649336,-0.457191 -0.785788,-0.758736 -0.143268,-0.31254 -0.122973,-0.618745 0.05019,-0.919214 0.313785,-0.544474 0.819197,-0.815644 1.496602,-0.854242 0.548578,-0.02825 1.112686,0.08834 1.718554,0.341006 0.05379,0.02247 0.107922,0.04601 0.162423,0.07061 0.306667,0.138414 0.616337,0.270426 0.928679,0.39579 0.566288,-0.597929 1.10743,-1.212511 1.621873,-1.842143 0.499678,0.178481 1.004963,0.338182 1.514069,0.477792 -0.919717,1.323567 -1.953417,2.59543 -3.088906,3.802992 0.690024,0.247904 1.391543,0.465924 2.101949,0.652134 z m -2.662986,-2.548641 c -0.291544,-0.120967 -0.580662,-0.247582 -0.867104,-0.379659 -0.09753,-0.04497 -0.194768,-0.0905 -0.291708,-0.136585 -0.247929,0.226932 -0.499237,0.451069 -0.753821,0.672444 -0.0692,0.06271 -0.119348,0.125011 -0.150162,0.187311 -0.08576,0.173402 -0.0087,0.350783 0.238701,0.527101 0.0553,0.03863 0.156696,0.09549 0.303008,0.167904 0.08469,0.04175 0.185245,0.08901 0.300778,0.140674 0.41788,-0.384804 0.824812,-0.778036 1.220308,-1.17919 z"
         style="font-size:8.90411px;opacity:1;stroke:url(#linearGradient8579)"
         id="path8465"
         inkscape:original-d="m 71.823404,90.862312 q -0.217385,0.695633 -1.065189,0.695633 h -1.656477 q -0.717372,0 -0.704329,-0.452162 -0.478248,0.560855 -1.282575,0.560855 -0.526072,0 -0.852151,-0.295644 -0.339121,-0.30434 -0.339121,-0.826065 0,-0.943453 0.765197,-1.478222 0.673895,-0.465205 1.656477,-0.465205 h 0.904324 l 0.813022,-2.29559 h 1.582566 l -1.617348,4.5564 z m -2.812968,-1.565176 h -1.104318 l -0.330426,0.934758 q -0.04348,0.130431 -0.04348,0.234776 0,0.291297 0.369555,0.369555 0.130431,0.02609 0.556507,0.02609 z" /><path
         d="m 78.338213,99.020363 c -0.05569,0.260883 -0.225435,0.466632 -0.514582,0.608151 -0.01205,0.006 -0.02418,0.01185 -0.03638,0.01753 -0.192216,0.08967 -0.402559,0.138905 -0.627597,0.146358 -0.697885,0.02311 -1.396224,0.0094 -2.092273,-0.03916 -0.753356,0.701591 -1.579983,1.362821 -2.470476,1.976771 -0.723184,-0.12152 -1.439817,-0.27545 -2.147532,-0.46006 0.173795,-0.97359 0.356603,-1.945322 0.548339,-2.915062 0.565767,0.154084 1.13697,0.28594 1.711838,0.394268 -0.122119,0.702183 -0.243292,1.404524 -0.363519,2.107014 0.783742,-0.57931 1.513933,-1.196123 2.18371,-1.845179 1.07077,0.10605 2.147686,0.127431 3.219639,0.05598 0.19653,-0.01255 0.392822,-0.02811 0.588832,-0.04662 z"
         style="font-size:8.90411px;opacity:1;stroke:url(#linearGradient8581)"
         id="path8467"
         inkscape:original-d="m 78.331926,88.601502 q -0.108693,0.382599 -0.499987,0.565203 -0.273906,0.130431 -0.586941,0.130431 H 75.41896 l -1.839081,2.260809 h -1.739084 l -0.186952,-2.956443 h 1.578219 l 0.02609,2.139074 1.630391,-2.139074 z" /><path
         d="m 88.867457,95.322544 c 0.09659,0.481059 -0.131577,0.892653 -0.695191,1.20545 -0.06497,0.03605 -0.130059,0.07189 -0.195283,0.107512 -0.802857,0.438433 -1.627159,0.841664 -2.469089,1.202947 0.0095,0.817325 -0.0066,1.639717 -0.0503,2.465807 -0.603731,0.23381 -1.216751,0.44749 -1.838001,0.63918 0.102754,-0.82024 0.175811,-1.638696 0.220966,-2.454002 -0.482419,0.169739 -0.969565,0.325005 -1.460772,0.464622 -1.076973,2.04881 -2.691913,3.23066 -4.412948,3.43789 -0.093,0.0104 -0.186075,0.0179 -0.279139,0.0225 -0.527597,0.0261 -0.974601,-0.0447 -1.330688,-0.19783 -0.450029,-0.19484 -0.657302,-0.48722 -0.644105,-0.85615 0.01127,-0.31519 0.182939,-0.61573 0.495639,-0.91232 0.39372,-0.3722 0.916871,-0.672779 1.569652,-0.940532 0,0 0,0 0,0 0.184937,-0.07561 0.380017,-0.148316 0.585604,-0.219183 0.729765,-0.249811 1.517919,-0.455517 2.394444,-0.644563 0.305449,-0.06588 0.609754,-0.138353 0.912746,-0.217126 0.682278,-1.26473 1.220972,-2.55963 1.639288,-3.859615 0.63935,-0.252894 1.273328,-0.535563 1.899358,-0.843447 0.133438,1.110061 0.223359,2.234389 0.265022,3.369378 0.737141,-0.324885 1.461035,-0.682553 2.16888,-1.068056 0.413017,-0.225141 0.820938,-0.459508 1.223917,-0.702452 z M 83.88589,95.114325 c -0.289263,0.999057 -0.645506,1.997645 -1.078215,2.985882 0.344184,-0.108222 0.686353,-0.224273 1.026254,-0.347701 0.05041,-0.884011 0.06689,-1.764059 0.05196,-2.638181 z m -2.694403,4.144608 c -1.219322,0.278981 -2.050277,0.529003 -2.534655,0.899147 -0.395177,0.30383 -0.594902,0.59363 -0.573042,0.88545 0.01855,0.24766 0.188277,0.362 0.511542,0.33001 0.44338,-0.0439 0.978329,-0.31334 1.54871,-0.82162 0.499734,-0.43978 0.843135,-0.87951 1.047445,-1.292987 z"
         style="font-size:8.90411px;opacity:1;stroke:url(#linearGradient8583)"
         id="path8469"
         inkscape:original-d="m 88.401222,88.601502 q -0.221733,0.695634 -1.060841,0.695634 h -2.58254 l -0.81737,2.260809 h -1.55648 l 0.81737,-2.260809 h -1.334747 q -2.191246,2.643408 -4.282494,2.643408 -0.60868,0 -1.02606,-0.226081 -0.526073,-0.286949 -0.526073,-0.843456 0,-0.4739 0.391294,-0.926062 0.630418,-0.726068 1.908645,-1.073884 0.999973,-0.269559 2.208636,-0.269559 h 0.843456 l 2.634712,-3.160785 h 2.095596 l -1.121709,3.160785 z m -4.052066,-2.439065 -1.904297,2.439065 h 0.96954 z m -3.552079,3.134699 q -1.630391,0 -2.286895,0.469553 -0.543464,0.391294 -0.543464,0.830412 0,0.373903 0.391294,0.373903 0.539116,0 1.34779,-0.608679 0.708677,-0.526073 1.091275,-1.065189 z" /><path
         d="m 93.443225,94.942466 c 0.109662,0.19661 0.103416,0.421541 -0.02341,0.673906 -0.112837,0.223881 -0.29439,0.426249 -0.543985,0.603637 -0.781708,0.555561 -1.584721,1.08615 -2.410066,1.587399 -0.374004,0.22714 -0.659893,0.177888 -0.853413,-0.134057 0.111273,-0.128552 0.223543,-0.257228 0.336801,-0.386055 0.151985,-0.192611 0.24403,-0.373623 0.277942,-0.541015 0.04771,-0.223727 0.0012,-0.444431 -0.13591,-0.662583 -0.08479,-0.134903 -0.232285,-0.207605 -0.441188,-0.221309 -0.209,-0.01371 -0.399198,0.03443 -0.573393,0.145052 0.181395,1.12805 0.325422,2.270012 0.428659,3.426227 0.02364,0.27113 0.04488,0.543061 0.06364,0.815752 -0.601618,0.3246 -1.216637,0.63112 -1.843955,0.91762 -0.0077,-1.949988 -0.152426,-3.871676 -0.412839,-5.748883 -0.01754,-0.127333 -0.03557,-0.254489 -0.0541,-0.381469 0.500139,-0.274771 0.993029,-0.564128 1.478973,-0.866791 0.07387,0.366694 0.143915,0.734875 0.210005,1.104558 0.633104,-0.38407 1.041646,-0.622508 1.281077,-0.706633 0.561559,-0.203837 0.983572,-0.09955 1.263364,0.34248 0.12144,0.197433 0.15723,0.45764 0.10041,0.780609 -0.05757,0.334058 -0.198159,0.618847 -0.419906,0.850213 0.776785,-0.507606 1.533563,-1.04187 2.271304,-1.598658 z"
         style="font-size:8.90411px;opacity:1;stroke:url(#linearGradient8585)"
         id="path8471"
         inkscape:original-d="m 91.848957,90.862312 q -0.03913,0.334773 -0.352165,0.526073 -0.278253,0.16956 -0.656504,0.16956 h -2.369502 q -0.534768,0 -0.547811,-0.552159 0.199994,-0.08261 0.404337,-0.160865 0.286949,-0.130431 0.434771,-0.317383 0.199994,-0.247819 0.199994,-0.634766 0,-0.239124 -0.221733,-0.421728 -0.221733,-0.182603 -0.491291,-0.173908 l -1.360833,3.934678 h -1.578219 l 1.960817,-5.682457 h 1.573871 l -0.36086,1.052145 q 0.978235,0 1.295618,0.0913 0.773892,0.213038 0.743458,0.995626 -0.01739,0.347817 -0.308687,0.699981 -0.299992,0.365208 -0.691286,0.473901 z" /><path
         d="m 98.538005,90.504325 c 0.134691,0.18052 0.159276,0.403316 0.07036,0.668272 -0.07922,0.235163 -0.228169,0.457831 -0.446921,0.6655 -0.68514,0.650426 -1.389117,1.286388 -2.112959,1.903517 -0.327669,0.279362 -0.615442,0.276156 -0.85843,-3.4e-5 0.08711,-0.143921 0.175505,-0.288072 0.265197,-0.432468 0.117074,-0.2132 0.177959,-0.405595 0.184201,-0.575893 0.01068,-0.227936 -0.07019,-0.438802 -0.24011,-0.633291 -0.105058,-0.120248 -0.262268,-0.169439 -0.47106,-0.149977 -0.208863,0.01947 -0.389421,0.09776 -0.54362,0.235587 0.448316,1.339697 0.857956,2.699956 1.222486,4.081417 -0.518571,0.406886 -1.04745,0.804402 -1.586937,1.191258 -0.435188,-2.017186 -0.974713,-3.989856 -1.599289,-5.919927 0.451584,-0.36363 0.897009,-0.73721 1.336576,-1.119461 0.129507,0.352675 0.256474,0.706792 0.380781,1.062363 0.565945,-0.483649 0.941343,-0.78521 1.165101,-0.904088 0.529141,-0.288127 0.963167,-0.243399 1.303343,0.154781 0.148619,0.178546 0.221353,0.431122 0.213357,0.758442 -0.0071,0.338385 -0.101939,0.639356 -0.28384,0.899775 0.68456,-0.613437 1.351491,-1.243405 2.001763,-1.885773 z"
         style="font-size:8.90411px;opacity:1;stroke:url(#linearGradient8587)"
         id="path8473"
         inkscape:original-d="m 97.548803,90.862312 q -0.03913,0.334773 -0.352164,0.526073 -0.278254,0.16956 -0.656505,0.16956 h -2.369502 q -0.534768,0 -0.547811,-0.552159 0.199995,-0.08261 0.404337,-0.160865 0.286949,-0.130431 0.434771,-0.317383 0.199995,-0.247819 0.199995,-0.634766 0,-0.239124 -0.221734,-0.421728 -0.221733,-0.182603 -0.491291,-0.173908 l -1.360833,3.934678 h -1.578219 l 1.960818,-5.682457 h 1.57387 l -0.360859,1.052145 q 0.978234,0 1.295617,0.0913 0.773893,0.213038 0.743459,0.995626 -0.01739,0.347817 -0.308688,0.699981 -0.299992,0.365208 -0.691286,0.473901 z" /></g></g></svg>
